<svg width="90" height="90" viewBox="0 0 90 90" fill="none" xmlns="http://www.w3.org/2000/svg">
<g clip-path="url(#clip0_827_3478)">
<path d="M44.8354 60.458C47.1252 60.458 48.9814 58.6018 48.9814 56.312C48.9814 54.0222 47.1252 52.166 44.8354 52.166C42.5457 52.166 40.6895 54.0222 40.6895 56.312C40.6895 58.6018 42.5457 60.458 44.8354 60.458Z" fill="#3A3A3A"/>
<path fill-rule="evenodd" clip-rule="evenodd" d="M42.086 32.113C42.9886 30.639 44.9152 30.1757 46.3892 31.0783C46.3894 31.0784 46.3895 31.0785 46.3897 31.0786C47.8637 31.9812 48.3268 33.9079 47.4243 35.3818C43.4088 41.9394 33.0947 58.7829 29.0793 65.3405C28.1767 66.8145 26.2501 67.2777 24.776 66.3751C24.7759 66.375 24.7758 66.3749 24.7756 66.3748C23.3016 65.4722 22.8384 63.5456 23.741 62.0716C27.7565 55.5141 38.0705 38.6705 42.086 32.113Z" fill="#C4C4C4"/>
<path fill-rule="evenodd" clip-rule="evenodd" d="M47.2519 32.113C46.3493 30.639 44.4227 30.1757 42.9486 31.0783C42.9485 31.0784 42.9484 31.0785 42.9482 31.0786C41.4742 31.9812 41.011 33.9079 41.9136 35.3818C45.9291 41.9394 56.2431 58.7829 60.2586 65.3405C61.1612 66.8145 63.0878 67.2777 64.5619 66.3751C64.562 66.375 64.5621 66.3749 64.5623 66.3748C66.0363 65.4722 66.4995 63.5456 65.5969 62.0716C61.5814 55.5141 51.2674 38.6705 47.2519 32.113Z" fill="#3A3A3A"/>
<path fill-rule="evenodd" clip-rule="evenodd" d="M46.4965 20.0048C46.4975 19.9236 46.5507 19.8525 46.6284 19.8291C46.7061 19.8057 46.7903 19.8354 46.836 19.9026C47.264 20.5345 47.9516 21.5504 47.9516 21.5504C47.9516 21.5504 49.1784 21.563 49.9412 21.571C50.0224 21.5719 50.0939 21.6253 50.1174 21.7031C50.1408 21.7809 50.1106 21.8649 50.0434 21.9105C49.4118 22.3383 48.3958 23.0261 48.3958 23.0261C48.3958 23.0261 48.3834 24.2528 48.3754 25.0159C48.3744 25.0972 48.3206 25.1685 48.2429 25.1919C48.1652 25.2153 48.0816 25.1853 48.0359 25.1181C47.6079 24.4863 46.9203 23.4703 46.9203 23.4703C46.9203 23.4703 45.6934 23.4577 44.9301 23.4499C44.8489 23.449 44.7779 23.3954 44.7545 23.3176C44.7311 23.2399 44.7607 23.156 44.8279 23.1104C45.46 22.6825 46.476 21.9946 46.476 21.9946C46.476 21.9946 46.4885 20.768 46.4965 20.0048Z" fill="#3A3A3A"/>
<path fill-rule="evenodd" clip-rule="evenodd" d="M59.2026 32.7972C59.204 32.6991 59.2684 32.6133 59.3618 32.5851C59.4559 32.5568 59.557 32.5928 59.6117 32.674C60.0761 33.3588 60.7756 34.3924 60.7756 34.3924C60.7756 34.3924 62.0238 34.4054 62.8506 34.414C62.9487 34.415 63.0349 34.4795 63.0631 34.5732C63.0913 34.667 63.055 34.7683 62.9738 34.8233C62.2892 35.287 61.2556 35.9868 61.2556 35.9868C61.2556 35.9868 61.243 37.2348 61.2339 38.0622C61.233 38.1601 61.1687 38.2459 61.0746 38.2743C60.9812 38.3024 60.8801 38.2664 60.8247 38.1854C60.361 37.5004 59.6614 36.4667 59.6614 36.4667C59.6614 36.4667 58.4133 36.4538 57.5858 36.4454C57.4877 36.4444 57.4022 36.3797 57.374 36.286C57.3457 36.1922 57.3814 36.0911 57.4626 36.0361C58.1479 35.5722 59.1814 34.8724 59.1814 34.8724C59.1814 34.8724 59.1941 33.6244 59.2026 32.7972Z" fill="#3A3A3A"/>
<path fill-rule="evenodd" clip-rule="evenodd" d="M56.3037 19.0941C56.224 18.9407 56.2527 18.7532 56.3744 18.6314C56.4971 18.5088 56.6846 18.4801 56.8372 18.5607C58.1844 19.2664 60.2671 20.3576 60.2671 20.3576C60.2671 20.3576 62.3495 19.2667 63.6967 18.5607C63.8498 18.4805 64.0376 18.5088 64.1597 18.6309C64.2818 18.753 64.3101 18.9408 64.2299 19.0939C63.5238 20.4411 62.4329 22.5234 62.4329 22.5234C62.4329 22.5234 63.5242 24.6062 64.2299 25.9534C64.3105 26.106 64.2818 26.2934 64.1591 26.4161C64.0373 26.5379 63.8499 26.5666 63.6964 26.4868C62.3501 25.7803 60.2673 24.689 60.2673 24.689C60.2673 24.689 58.1841 25.7808 56.8369 26.4868C56.6847 26.5662 56.4969 26.5379 56.3748 26.4158C56.2527 26.2937 56.2244 26.1059 56.3038 25.9537C57.0097 24.6064 58.1015 22.5232 58.1015 22.5232C58.1015 22.5232 57.0103 20.4405 56.3037 19.0941Z" fill="#3A3A3A"/>
<path fill-rule="evenodd" clip-rule="evenodd" d="M79.7617 64.6578C83.1592 58.6533 84.945 51.8717 84.945 44.9725C84.945 22.911 67.0339 5 44.9725 5C22.9112 5 5 22.911 5 44.9725C5 51.8717 6.78561 58.6533 10.1833 64.6578L13.9047 62.5521C10.8707 57.1899 9.27598 51.1335 9.27598 44.9725C9.27598 25.2709 25.2711 9.27581 44.9725 9.27581C64.6739 9.27581 80.669 25.2709 80.669 44.9725C80.669 51.1335 79.0743 57.1899 76.0401 62.5521L79.7617 64.6578Z" fill="#00B3A2"/>
<path fill-rule="evenodd" clip-rule="evenodd" d="M79.3874 65.3072C86.7255 52.8882 86.8032 37.479 79.5907 24.9866C72.3781 12.4941 58.9945 4.85676 44.5704 5.00221L44.6135 9.27793C57.4947 9.148 69.4468 15.9685 75.8877 27.1245C82.3287 38.2806 82.2592 52.0415 75.7061 63.132L79.3874 65.3072Z" fill="#F94929"/>
<path fill-rule="evenodd" clip-rule="evenodd" d="M10.1543 64.6088C17.2404 77.1732 30.5463 84.945 44.9713 84.945C59.3963 84.945 72.7022 77.1732 79.7883 64.6088L76.0639 62.5083C69.7358 73.7286 57.8531 80.6692 44.9713 80.6692C32.0893 80.6692 20.2068 73.7286 13.8787 62.5083L10.1543 64.6088Z" fill="#FFC300"/>
</g>
<defs>
<clipPath id="clip0_827_3478">
<rect width="90" height="90" fill="white"/>
</clipPath>
</defs>
</svg>
