<svg width="90" height="90" viewBox="0 0 90 90" fill="none" xmlns="http://www.w3.org/2000/svg">
<path d="M77 4H13C8.58172 4 5 7.58172 5 12V76C5 80.4183 8.58172 84 13 84H77C81.4183 84 85 80.4183 85 76V12C85 7.58172 81.4183 4 77 4Z" fill="#FF5A00"/>
<path d="M53.6481 26H56.1593C59.6889 26.2 63.437 26.8556 66.2481 29.1667C68.4926 30.9853 69.4444 34.0927 68.8926 36.8928C68.4704 38.9817 67.5074 40.9077 66.4704 42.7485C64.3667 46.393 61.7815 49.719 59.3222 53.1227C58.8815 53.6857 58.537 54.3746 58.5815 55.1079C58.6222 55.6894 59.0667 56.1598 59.5889 56.3672C60.6 56.7783 61.7185 56.6969 62.7815 56.6376C66.1407 56.2857 69.3778 55.2672 72.5815 54.245C72.8259 54.0931 72.9074 54.3413 73 54.519C69.5963 56.7895 65.9333 58.6821 62.0815 60.0747C59.9519 60.7895 57.7 61.4673 55.4296 61.2006C54.237 61.0821 53.0407 60.371 52.6667 59.1821C52.2037 57.6339 52.3741 55.9191 53.0444 54.4561C54.063 52.1708 55.6444 50.2078 57.1444 48.2263C59.6296 44.967 62.1963 41.7262 64.1481 38.1039C64.7926 36.8187 65.4815 35.2594 64.8407 33.8409C64.237 32.5335 62.9259 31.7631 61.6704 31.1816C59.4407 30.1853 57.063 29.5853 54.7185 28.9186C54.3654 29.1507 54.0136 29.3852 53.663 29.6223C54.4778 30.2445 55.2926 30.8668 56.1 31.5001C53.0148 32.0557 49.9407 32.6779 46.9037 33.452C42.2778 34.6002 37.763 36.1372 33.2889 37.7669C33.7259 38.6373 34.1593 39.5114 34.5741 40.3929C33.563 41.5114 32.5593 42.641 31.5481 43.7596C33.9778 44.4855 36.5963 44.5855 39.0741 44.0374C41.1926 43.5633 43.1852 42.5485 44.8037 41.1003C44.363 40.5521 43.8074 40.1114 43.2074 39.7484C45.1741 39.7891 46.963 41.504 46.9667 43.4929C46.5815 43.4954 46.1988 43.4979 45.8185 43.5003C45.737 43.067 45.6222 42.6485 45.4704 42.2373C43.237 44.2559 40.3519 45.5189 37.363 45.8448C34.7296 46.1485 32.037 45.7855 29.5593 44.8596C29.7259 46.393 29.8926 47.9189 30.0481 49.4523C28.6407 50.0004 27.3333 50.793 26.163 51.7486C25.2333 52.5597 24.3111 53.4931 23.9556 54.7079C23.6148 55.7783 24.1704 56.9932 25.1074 57.5672C26.2444 58.271 27.5704 58.5969 28.8815 58.7858C30.6111 59.0117 32.3593 58.9932 34.0963 58.871C37.5074 58.6191 40.8778 57.9784 44.1963 57.1746C44.5259 57.0413 44.6815 57.5858 44.3444 57.6709C41.6963 59.0339 38.9259 60.1821 36.037 60.9229C33.3222 61.6229 30.5259 61.9821 27.7259 62.0784C24.8704 61.9895 21.837 61.4377 19.5741 59.5673C17.8926 58.2043 17.0074 56.0413 17 53.8968V53.782C17.0556 51.5153 17.8222 49.3226 18.9259 47.3597C20.3778 44.5892 22.1667 41.9892 24.2815 39.6817C27.937 35.6557 32.5222 32.5409 37.4519 30.2853C42.5593 27.9704 48.0259 26.3074 53.6481 26Z" fill="white"/>
</svg>
