<svg width="90" height="90" viewBox="0 0 90 90" fill="none" xmlns="http://www.w3.org/2000/svg">
<path d="M44.9836 85V69.4964C61.3941 69.4964 74.1326 53.2221 67.8313 35.9505C65.5194 29.5587 60.3968 24.4362 54.0048 22.1242C36.733 15.8684 20.4585 28.5614 20.4585 44.9717H5C5 18.815 30.2957 -1.58453 57.7221 6.98326C69.69 10.7458 79.2552 20.2656 82.9725 32.2333C91.5404 59.7046 71.186 85 44.9836 85Z" fill="#0080FF"/>
<path d="M45.0297 69.5418H29.6165V54.1289H45.0297V69.5418Z" fill="#0080FF"/>
<path d="M29.6169 81.4189H17.7397V69.5418H29.6165L29.6169 81.4189Z" fill="#0080FF"/>
<path d="M17.7386 69.5417H7.81073V59.6139H17.7386V69.5417Z" fill="#0080FF"/>
</svg>
