<svg width="90" height="90" viewBox="0 0 90 90" fill="none" xmlns="http://www.w3.org/2000/svg">
<path d="M84.2208 37.7052C83.9982 37.5196 81.9946 35.9984 77.6906 35.9984C76.5775 35.9984 75.4273 36.1097 74.3142 36.2952C73.4979 30.6184 68.7858 27.8727 68.6003 27.7243L67.45 27.0564L66.708 28.1324C65.7804 29.5795 65.0754 31.212 64.6673 32.8817C63.8881 36.1097 64.3704 39.1522 66.003 41.7495C64.0365 42.8626 60.8456 43.1223 60.1778 43.1594H7.49078C6.11795 43.1594 5.00484 44.2725 5.00484 45.6453C4.93064 50.2462 5.70981 54.847 7.30526 59.1882C9.12333 63.9374 11.8319 67.4623 15.3196 69.6143C19.2526 72.026 25.6715 73.3988 32.9067 73.3988C36.1718 73.3988 39.4369 73.102 42.6649 72.5084C47.1544 71.6921 51.4584 70.1337 55.4285 67.8704C58.6936 65.9781 61.6248 63.5664 64.1107 60.7465C68.3034 56.0344 70.7894 50.7656 72.6074 46.0906C72.8672 46.0906 73.0898 46.0906 73.3495 46.0906C77.9132 46.0906 80.7331 44.2725 82.2914 42.7142C83.3303 41.7495 84.1095 40.5621 84.6661 39.2264L85 38.2617L84.2208 37.7052Z" fill="#2496ED"/>
<path d="M12.3884 41.6383H19.4381C19.772 41.6383 20.0689 41.3786 20.0689 41.0075V34.6999C20.0689 34.366 19.8091 34.0692 19.4381 34.0692H12.3884C12.0545 34.0692 11.7577 34.3289 11.7577 34.6999V41.0075C11.7948 41.3786 12.0545 41.6383 12.3884 41.6383Z" fill="#2496ED"/>
<path d="M22.1096 41.6383H29.1592C29.4932 41.6383 29.79 41.3786 29.79 41.0075V34.6999C29.79 34.366 29.5303 34.0692 29.1592 34.0692H22.1096C21.7756 34.0692 21.4788 34.3289 21.4788 34.6999V41.0075C21.5159 41.3786 21.7756 41.6383 22.1096 41.6383Z" fill="#2496ED"/>
<path d="M32.0162 41.6383H39.0659C39.3998 41.6383 39.6966 41.3786 39.6966 41.0075V34.6999C39.6966 34.366 39.4369 34.0692 39.0659 34.0692H32.0162C31.6823 34.0692 31.3854 34.3289 31.3854 34.6999V41.0075C31.3854 41.3786 31.6452 41.6383 32.0162 41.6383Z" fill="#2496ED"/>
<path d="M41.7744 41.6383H48.8241C49.158 41.6383 49.4548 41.3786 49.4548 41.0075V34.6999C49.4548 34.366 49.1951 34.0692 48.8241 34.0692H41.7744C41.4405 34.0692 41.1437 34.3289 41.1437 34.6999V41.0075C41.1437 41.3786 41.4405 41.6383 41.7744 41.6383Z" fill="#2496ED"/>
<path d="M22.1096 32.6226H29.1592C29.4932 32.6226 29.79 32.3257 29.79 31.9918V25.6842C29.79 25.3503 29.5303 25.0534 29.1592 25.0534H22.1096C21.7756 25.0534 21.4788 25.3132 21.4788 25.6842V31.9918C21.5159 32.3257 21.7756 32.6226 22.1096 32.6226Z" fill="#2496ED"/>
<path d="M32.0162 32.6226H39.0659C39.3998 32.6226 39.6966 32.3257 39.6966 31.9918V25.6842C39.6966 25.3503 39.4369 25.0534 39.0659 25.0534H32.0162C31.6823 25.0534 31.3854 25.3132 31.3854 25.6842V31.9918C31.3854 32.3257 31.6452 32.6226 32.0162 32.6226Z" fill="#2496ED"/>
<path d="M41.7744 32.6226H48.8241C49.158 32.6226 49.4548 32.3257 49.4548 31.9918V25.6842C49.4548 25.3503 49.158 25.0534 48.8241 25.0534H41.7744C41.4405 25.0534 41.1437 25.3132 41.1437 25.6842V31.9918C41.1437 32.3257 41.4405 32.6226 41.7744 32.6226Z" fill="#2496ED"/>
<path d="M41.7744 23.5691H48.8241C49.158 23.5691 49.4548 23.3094 49.4548 22.9384V16.6308C49.4548 16.2968 49.158 16 48.8241 16H41.7744C41.4405 16 41.1437 16.2597 41.1437 16.6308V22.9384C41.1437 23.2723 41.4405 23.5691 41.7744 23.5691Z" fill="#2496ED"/>
<path d="M51.6069 41.6383H58.6565C58.9905 41.6383 59.2873 41.3786 59.2873 41.0075V34.6999C59.2873 34.366 59.0276 34.0692 58.6565 34.0692H51.6069C51.2729 34.0692 50.9761 34.3289 50.9761 34.6999V41.0075C51.0132 41.3786 51.2729 41.6383 51.6069 41.6383Z" fill="#2496ED"/>
</svg>
