<svg width="90" height="90" viewBox="0 0 90 90" fill="none" xmlns="http://www.w3.org/2000/svg">
<path d="M55.7593 30.7295H58.1993L65.1532 23.7753L65.4948 20.8228C61.5112 17.3065 56.6969 14.8638 51.5068 13.7256C46.3167 12.5873 40.9221 12.791 35.8326 14.3175C30.7431 15.8439 26.1267 18.6426 22.4195 22.4494C18.7124 26.2561 16.0368 30.945 14.6456 36.0734C15.4203 35.7558 16.2784 35.7043 17.0855 35.927L30.9935 33.6333C30.9935 33.6333 31.7011 32.462 32.0671 32.5352C35.0471 29.2622 39.1654 27.2522 43.5789 26.9165C47.9925 26.5808 52.3674 27.9449 55.8081 30.7295H55.7593Z" fill="#EA4335"/>
<path d="M75.0641 36.0731C73.4657 30.1867 70.184 24.8949 65.6214 20.8469L55.8615 30.6073C57.8955 32.2694 59.5256 34.3717 60.6288 36.7557C61.732 39.1397 62.2794 41.743 62.2298 44.3694V46.1019C63.3705 46.1019 64.5001 46.3266 65.554 46.7631C66.6078 47.1997 67.5654 47.8395 68.372 48.6462C69.1786 49.4528 69.8184 50.4104 70.255 51.4644C70.6915 52.5183 70.9162 53.6479 70.9162 54.7886C70.9162 55.9294 70.6915 57.059 70.255 58.1129C69.8184 59.1668 69.1786 60.1244 68.372 60.9311C67.5654 61.7377 66.6078 62.3776 65.554 62.8141C64.5001 63.2507 63.3705 63.4754 62.2298 63.4754H44.8571L43.1248 65.2322V75.6514L44.8571 77.3839H62.2298C67.0811 77.4217 71.8157 75.8969 75.7332 73.0351C79.6507 70.1733 82.5432 66.1265 83.9826 61.4934C85.422 56.8602 85.332 51.8867 83.7258 47.3087C82.1197 42.7307 79.0827 38.7912 75.0641 36.0731Z" fill="#4285F4"/>
<path d="M27.4559 77.2848H44.8286V63.3762H27.4559C26.2181 63.376 24.9949 63.1097 23.8691 62.5954L21.4291 63.3518L14.4263 70.3061L13.8163 72.7462C17.7433 75.7117 22.5351 77.3061 27.4559 77.2848Z" fill="#34A853"/>
<path d="M27.4593 32.1682C22.7521 32.1964 18.1713 33.694 14.3566 36.4521C10.5418 39.2101 7.68375 43.0908 6.18149 47.5521C4.67923 52.0134 4.60781 56.8325 5.97722 61.3364C7.34662 65.8403 10.0885 69.8039 13.8198 72.6738L23.8969 62.5962C22.6163 62.0176 21.4952 61.137 20.6298 60.0298C19.7643 58.9227 19.1804 57.6221 18.9281 56.2396C18.6758 54.8572 18.7627 53.4341 19.1812 52.0926C19.5997 50.7511 20.3375 49.5312 21.3311 48.5375C22.3248 47.5438 23.5447 46.806 24.8861 46.3875C26.2276 45.9689 27.6505 45.882 29.0329 46.1344C30.4153 46.3867 31.7158 46.9706 32.823 47.8361C33.9301 48.7016 34.8107 49.8227 35.3892 51.1034L45.4664 41.0258C43.3513 38.2606 40.6252 36.0221 37.5014 34.4855C34.3775 32.9489 30.9406 32.1558 27.4593 32.1682Z" fill="#FBBC05"/>
</svg>
