<svg width="269" height="100" viewBox="0 0 269 100" fill="none" xmlns="http://www.w3.org/2000/svg">
<path d="M259.134 16.7417C263.464 16.7417 267.259 13.1703 267.259 8.61671C267.259 4.28635 263.688 0.491699 259.134 0.491699C254.804 0.491699 251.009 4.06313 251.009 8.61671C251.232 13.1703 254.804 16.7417 259.134 16.7417ZM252.438 8.66134C252.438 4.91134 255.607 1.74169 259.357 1.74169C263.107 1.74169 266.277 4.91134 266.277 8.66134C266.277 12.4113 263.107 15.581 259.357 15.581C255.384 15.581 252.438 12.4113 252.438 8.66134ZM256.188 12.8131H257.75V9.2417H259.536L260.92 12.5899H262.705L261.143 8.83992C261.723 8.66135 262.527 8.25955 262.527 6.65241C262.527 4.28634 260.741 3.88456 259.179 3.88456H256.411V12.7685H256.188V12.8131ZM257.75 5.67027H259.536C260.518 5.67027 260.92 6.07205 260.92 6.87562C260.92 7.67919 260.339 8.08099 259.536 8.08099H257.75V5.67027ZM1.5 12.1881V2.72384H11.0089V12.2328V72.1435V72.3221V81.6078H1.5V72.0988V71.9203V12.1881ZM98.1964 52.9471C98.375 67.3667 107.304 78.8399 118.152 78.6613C129.045 78.4828 137.527 66.6078 137.348 52.3667C137.17 37.9471 128.241 26.4738 117.393 26.6524C106.5 26.831 97.9732 38.4828 98.1964 52.9471ZM176.902 35.5363C177.08 36.1167 176.5 34.7328 176.5 34.7328L176.902 35.5363ZM183.42 95.0453C183.821 94.2417 184.402 93.2596 185.205 91.6971L183.42 95.0453ZM184 30.581C184.179 30.9828 184.179 31.1613 184.402 31.5631L187.571 39.4649L184 30.581ZM144.045 70.1346C149.982 75.4917 155.116 78.2596 162.036 78.2596C168.955 78.2596 175.071 74.9113 175.071 68.3935C175.071 62.8578 170.339 59.6881 161.634 56.1167C154.313 52.9471 149 50.7596 146.009 46.2506C146.411 48.2149 146.589 50.2239 146.589 52.3667C146.589 69.956 133.732 84.1971 117.929 84.1971C102.125 84.1971 89.2679 69.956 89.2679 52.3667C89.2679 41.6971 94 32.4113 101.143 26.4738H81.7679V72.1435V72.3221V81.831H73.2857V72.7238C73.2857 72.5453 73.2857 72.3221 73.2857 72.3221V26.4292H65.7857V20.7149H73.5089C74.4911 9.06312 81.6339 2.54527 91.6786 2.54527C98.1964 2.54527 101.768 3.12563 103.732 4.10777V12.0096C103.732 12.5899 103.732 12.9917 103.732 12.9917H103.33C100.161 10.0453 97.2143 8.03634 90.0714 8.03634C84.3572 8.03634 80.5625 12.5899 81.9464 20.6703H114.179C115.563 20.4917 116.946 20.2685 118.33 20.2685C129.804 20.2685 139.67 27.7685 144.223 38.6613C144.223 38.081 144.223 37.456 144.223 36.6971C144.223 25.4471 155.295 20.4917 166.545 20.4917C166.946 20.4917 167.348 20.4917 167.75 20.4917C171.723 20.4917 177.438 21.6971 181.009 22.6792L184.179 30.4024L187.75 39.2863L197.259 62.9917L198.464 66.7417L199.67 62.9917L211.946 32.7238C214.134 24.4203 223.196 20.8488 232.884 20.8488C237.839 20.8488 241.366 21.4292 245.741 23.0363V32.1881C240.384 28.2149 236.634 26.0721 230.518 26.0721C225.161 26.0721 218.866 28.4381 218.866 36.3399C218.688 42.2774 222.214 43.2596 232.705 48.3935C241.188 52.1435 249.134 56.1167 249.134 65.581C249.134 81.3846 233.509 84.1524 226.009 84.1524C219.268 84.1524 212.973 82.5899 209.58 79.5989V69.1078L210.161 69.5096C216.277 75.2238 221.813 78.2149 228.732 78.2149C235.652 78.2149 241.768 74.8667 241.768 68.3488C241.768 62.8131 237.036 59.6435 228.33 56.0721C220.027 52.5006 214.67 50.1346 212.527 44.1971C209.179 52.3221 193.554 90.4471 189.804 98.5721H181.5L183.464 94.8221L185.25 91.4738V91.2953C187.438 87.1435 190.384 80.6256 193.152 74.2863L176.946 35.1346C176.768 34.956 176.545 34.331 175.964 33.1703C174.759 30.4024 173.598 27.6346 170.027 26.4292C168.241 25.8488 166.054 25.4471 163.911 25.4471C158.554 25.4471 151.857 27.8131 151.857 35.7149C151.679 41.6524 155.607 42.6346 166.098 47.7685C174.58 51.5185 182.527 55.4917 182.527 64.956C182.527 80.7596 166.902 83.5274 159.402 83.5274C153.464 83.5274 147.75 82.1435 144.179 79.956L144.045 70.1346ZM28.7768 21.2953L28.9554 28.2149V28.6167C29.1339 28.4381 29.1339 28.0363 29.3571 27.8131C32.9286 24.0631 37.2589 20.3131 47.75 20.3131C57.8393 20.3131 64.1786 28.7953 64.5357 34.1524V71.9203V72.0988V81.6078H56.0536V70.3578V38.1256C56.0536 31.3846 50.1161 26.6524 43.0179 26.6524C37.0804 26.6524 29.3571 32.0096 29.1786 37.5453V72.1435V72.3221V81.6078H20.4732V72.0988V29.1971V21.2953H22.0357H26.7679H28.7768Z" fill="#3781C2"/>
</svg>
