<svg width="90" height="90" viewBox="0 0 90 90" fill="none" xmlns="http://www.w3.org/2000/svg">
<path d="M82.3799 42.79L47.9054 8.31493L44.5905 5L18.7346 30.8563L6.91159 42.6797C5.69614 43.895 5.69614 45.884 6.91159 47.21L30.5577 70.8563L44.5905 85L70.4464 59.1437L70.8884 58.7017L82.3799 47.21C83.5956 45.9943 83.5956 44.0057 82.3799 42.79ZM44.5905 56.8233L32.7676 45L44.5905 33.1767L56.4136 45L44.5905 56.8233Z" fill="#2684FF"/>
<path d="M44.5915 33.1767C36.8569 25.442 36.8569 12.8452 44.4811 5.11035L18.625 30.9667L32.658 45L44.5915 33.1767Z" fill="url(#paint0_linear_874_4152)"/>
<path d="M56.4169 45L44.5938 56.8233C52.3283 64.558 52.3283 77.1547 44.5938 85L70.56 59.033L56.4169 45Z" fill="url(#paint1_linear_874_4152)"/>
<defs>
<linearGradient id="paint0_linear_874_4152" x1="42.4825" y1="21.1981" x2="25.9705" y2="37.7098" gradientUnits="userSpaceOnUse">
<stop offset="0.176" stop-color="#0052CC"/>
<stop offset="1" stop-color="#2684FF"/>
</linearGradient>
<linearGradient id="paint1_linear_874_4152" x1="46.8551" y1="68.6307" x2="63.3341" y2="52.1522" gradientUnits="userSpaceOnUse">
<stop offset="0.176" stop-color="#0052CC"/>
<stop offset="1" stop-color="#2684FF"/>
</linearGradient>
</defs>
</svg>
