<svg width="100" height="100" viewBox="0 0 100 100" fill="none" xmlns="http://www.w3.org/2000/svg">
<g clip-path="url(#clip0_1503_2801)">
<path d="M10.8012 60.803C10.8012 64.6214 11.6393 67.5529 12.7347 69.3265C14.171 71.6495 16.3131 72.6336 18.497 72.6336C21.3138 72.6336 23.8907 71.9346 28.8566 65.0665C32.8349 59.5615 37.5226 51.8345 40.6767 46.9903L46.0182 38.7833C49.7288 33.0836 54.0235 26.7475 58.9477 22.4528C62.9677 18.9474 67.3042 17 71.6685 17C78.9957 17 85.9751 21.2461 91.3166 29.2096C97.1623 37.9313 100 48.9168 100 60.2536C100 66.993 98.6716 71.945 96.4112 75.8573C94.2273 79.6408 89.9708 83.4209 82.8105 83.4209V72.6336C88.9414 72.6336 90.4716 67 90.4716 60.5526C90.4716 51.365 88.3294 41.1689 83.6104 33.8834C80.2615 28.7158 75.9215 25.5582 71.1469 25.5582C65.9828 25.5582 61.8271 29.4531 57.1568 36.3977C54.6738 40.0874 52.1248 44.5838 49.2628 49.6575L46.1121 55.239C39.783 66.461 38.1799 69.017 35.0153 73.2352C29.4686 80.6215 24.7322 83.4209 18.497 83.4209C11.1003 83.4209 6.42301 80.2181 3.52622 75.3913C1.1615 71.4582 0 66.2975 0 60.417L10.8012 60.803Z" fill="#0081FB"/>
<path d="M8.51953 29.9712C13.4715 22.338 20.6179 17 28.8144 17C33.5613 17 38.2803 18.4049 43.2079 22.4284C48.5981 26.8275 54.343 34.0712 61.5102 46.0096L64.0801 50.2939C70.284 60.6292 73.8137 65.9463 75.8794 68.4536C78.5362 71.6738 80.3967 72.6336 82.8136 72.6336C88.9445 72.6336 90.4746 67 90.4746 60.5526L100.003 60.2536C100.003 66.993 98.6746 71.945 96.4142 75.8573C94.2303 79.6408 89.9738 83.4209 82.8136 83.4209C78.3624 83.4209 74.4188 82.4542 70.058 78.3402C66.7056 75.1826 62.7865 69.5734 59.7714 64.5309L50.8029 49.5497C46.303 42.0313 42.1751 36.4255 39.7861 33.8869C37.2162 31.157 33.9125 27.8603 28.6405 27.8603C24.3736 27.8603 20.75 30.8545 17.7176 35.4344L8.51953 29.9712Z" fill="url(#paint0_linear_1503_2801)"/>
<path d="M28.6375 27.8603C24.3706 27.8603 20.747 30.8545 17.7146 35.4344C13.4268 41.9061 10.8012 51.5458 10.8012 60.803C10.8012 64.6214 11.6393 67.5529 12.7347 69.3265L3.52622 75.3913C1.1615 71.4582 0 66.2975 0 60.417C0 49.7236 2.93504 38.5781 8.51648 29.9712C13.4685 22.338 20.6148 17 28.8114 17L28.6375 27.8603Z" fill="url(#paint1_linear_1503_2801)"/>
</g>
<defs>
<linearGradient id="paint0_linear_1503_2801" x1="1278.17" y1="3732.17" x2="8155.4" y2="4079.51" gradientUnits="userSpaceOnUse">
<stop stop-color="#0064E1"/>
<stop offset="0.4" stop-color="#0064E1"/>
<stop offset="0.83" stop-color="#0073EE"/>
<stop offset="1" stop-color="#0082FB"/>
</linearGradient>
<linearGradient id="paint1_linear_1503_2801" x1="1564.89" y1="4850.77" x2="1564.89" y2="2312.17" gradientUnits="userSpaceOnUse">
<stop stop-color="#0082FB"/>
<stop offset="1" stop-color="#0064E0"/>
</linearGradient>
<clipPath id="clip0_1503_2801">
<rect width="100" height="66.7969" fill="white" transform="translate(0 17)"/>
</clipPath>
</defs>
</svg>
