<svg width="90" height="90" viewBox="0 0 90 90" fill="none" xmlns="http://www.w3.org/2000/svg">
<path fill-rule="evenodd" clip-rule="evenodd" d="M30.9553 70.632C24.1323 70.8093 17.5303 68.2202 12.642 63.455C7.75634 58.6903 5 52.1504 5 45.32C5 38.4928 7.75634 31.9528 12.642 27.1855C17.5303 22.4203 24.1323 19.8313 30.9553 20.0085H60.3576C66.9518 20.1805 73.2172 22.9216 77.8204 27.6505C82.4236 32.3794 85 38.719 85 45.32C85 51.9215 82.4236 58.2637 77.8204 62.99C73.2172 67.7189 66.9518 70.46 60.3576 70.632H30.9553ZM59.6922 61.7213C64.126 61.8628 68.4288 60.2006 71.6144 57.1128C74.7995 54.0256 76.6 49.777 76.6 45.3384C76.6 40.8994 74.7995 36.6512 71.6144 33.5609C68.4288 30.4731 64.126 28.8115 59.6922 28.9551H31.6023C27.351 29.0913 23.3207 30.8792 20.3639 33.9359C17.4046 36.9926 15.7502 41.0819 15.7502 45.3384C15.7502 49.5944 17.4046 53.6811 20.3639 56.7404C23.3207 59.7971 27.351 61.5824 31.6023 61.7213H59.6922Z" fill="#C74634"/>
</svg>
