<svg width="90" height="90" viewBox="0 0 90 90" fill="none" xmlns="http://www.w3.org/2000/svg">
<path d="M44.9077 5.125C22.8374 5.125 5.00391 22.9914 5.00391 45.0288C5.00391 61.9426 15.5135 76.3934 30.3584 82.2066C29.9972 79.0537 29.7016 74.193 30.4898 70.7446C31.2123 67.6244 35.1534 50.9076 35.1534 50.9076C35.1534 50.9076 33.9712 48.51 33.9712 44.9959C33.9712 39.4455 37.1897 35.3073 41.1966 35.3073C44.6121 35.3073 46.2543 37.869 46.2543 40.9234C46.2543 44.3391 44.0866 49.4625 42.9372 54.2246C41.9847 58.1986 44.9406 61.45 48.8488 61.45C55.9429 61.45 61.3948 53.962 61.3948 43.1896C61.3948 33.6324 54.5306 26.9654 44.7107 26.9654C33.3471 26.9654 26.6801 35.4716 26.6801 44.2733C26.6801 47.6891 27.9938 51.3673 29.636 53.3708C29.9643 53.7649 29.9972 54.1261 29.8986 54.5202C29.6031 55.7683 28.9134 58.4942 28.782 59.0526C28.6178 59.7751 28.1909 59.9393 27.4354 59.5781C22.5091 57.2134 19.4218 49.9224 19.4218 44.0763C19.4218 31.4976 28.5521 19.937 45.7944 19.937C59.6212 19.937 70.3936 29.7898 70.3936 42.9925C70.3936 56.7535 61.7232 67.8214 49.7028 67.8214C45.6632 67.8214 41.8533 65.7196 40.5725 63.2236C40.5725 63.2236 38.5692 70.8431 38.0764 72.715C37.1897 76.1964 34.7593 80.5315 33.1172 83.1918C36.8612 84.3414 40.8025 84.9654 44.9406 84.9654C66.978 84.9654 84.8444 67.0989 84.8444 45.0615C84.8115 22.9914 66.9451 5.125 44.9077 5.125Z" fill="#E60019"/>
</svg>
