<svg width="90" height="90" viewBox="0 0 90 90" fill="none" xmlns="http://www.w3.org/2000/svg">
<path d="M71.6227 20.3579C71.5584 19.9724 71.2371 19.7153 70.9159 19.7153C70.5946 19.7153 64.94 19.5868 64.94 19.5868C64.94 19.5868 60.1849 14.9603 59.7351 14.5105C59.2853 14.0607 58.3215 14.1892 58.0002 14.3177C58.0002 14.3177 57.1006 14.5748 55.6227 15.0246C55.3657 14.1892 54.9801 13.2254 54.4661 12.1973C52.7954 8.98441 50.2894 7.24946 47.3335 7.24946C47.1408 7.24946 46.948 7.24946 46.691 7.31372C46.6267 7.18521 46.4982 7.12095 46.4339 6.99244C45.1488 5.57878 43.4781 4.93621 41.4861 5.00047C37.6307 5.12898 33.7753 7.89204 30.691 12.8398C28.5062 16.3097 26.8355 20.6792 26.3215 24.0848C21.8877 25.4342 18.8034 26.3981 18.7392 26.4623C16.4902 27.1691 16.4259 27.2334 16.1689 29.3539C15.9761 30.9603 10.0645 76.2615 10.0645 76.2615L59.1568 84.7434L80.4259 79.4744C80.3616 79.4101 71.6869 20.7434 71.6227 20.3579ZM53.1809 15.7956C52.0243 16.1169 50.7392 16.5667 49.3898 16.9523C49.3898 15.0246 49.1327 12.2615 48.2331 9.94826C51.1247 10.5266 52.5383 13.8037 53.1809 15.7956ZM46.7552 17.7876C44.1849 18.5587 41.3576 19.4583 38.5303 20.2936C39.3014 17.2736 40.8436 14.2535 42.6428 12.2615C43.3496 11.5547 44.3134 10.7193 45.4058 10.2053C46.5624 12.4543 46.8195 15.6029 46.7552 17.7876ZM41.5504 7.57075C42.45 7.57075 43.2211 7.76352 43.8637 8.14906C42.8355 8.72738 41.8074 9.49846 40.8436 10.5266C38.4018 13.1611 36.5383 17.2736 35.7673 21.1932C33.454 21.9001 31.1408 22.6069 29.0203 23.2495C30.3697 17.0808 35.5745 7.76352 41.5504 7.57075Z" fill="#95BF47"/>
<path d="M70.9159 19.7153C70.5946 19.7153 64.94 19.5868 64.94 19.5868C64.94 19.5868 60.1849 14.9603 59.7351 14.5105C59.5424 14.3177 59.3501 14.2535 59.0931 14.1893V84.6792L80.3621 79.4101C80.3621 79.4101 71.6874 20.7435 71.6232 20.2937C71.5589 19.9724 71.2371 19.7153 70.9159 19.7153Z" fill="#5E8E3E"/>
<path d="M47.2698 30.6391L44.828 39.8921C44.828 39.8921 42.0649 38.6069 38.7878 38.864C33.9686 39.1852 33.9686 42.2053 33.9686 42.9764C34.2256 47.0888 45.085 47.9884 45.7276 57.6913C46.1774 65.3378 41.6794 70.5427 35.1894 70.9282C27.3501 71.4423 23.0449 66.8158 23.0449 66.8158L24.7155 59.7475C24.7155 59.7475 29.0208 63.0246 32.4906 62.7676C34.7396 62.6391 35.575 60.7756 35.5107 59.4905C35.1894 54.0929 26.322 54.4142 25.7437 45.5467C25.2939 38.0929 30.1774 30.5105 40.9726 29.868C45.1493 29.5467 47.2698 30.6391 47.2698 30.6391Z" fill="white"/>
</svg>
