<svg width="90" height="90" viewBox="0 0 90 90" fill="none" xmlns="http://www.w3.org/2000/svg">
<path d="M21.807 55.554C21.807 60.1794 18.0287 63.9579 13.4035 63.9579C8.77832 63.9579 5 60.1794 5 55.554C5 50.9286 8.77832 47.1501 13.4035 47.1501H21.807V55.554Z" fill="#E01E5A"/>
<path d="M26.0393 55.5542C26.0393 50.9288 29.8176 47.1503 34.4428 47.1503C39.068 47.1503 42.8463 50.9288 42.8463 55.5542V76.5965C42.8463 81.2219 39.068 85.0004 34.4428 85.0004C29.8176 85.0004 26.0393 81.2219 26.0393 76.5965V55.5542Z" fill="#E01E5A"/>
<path d="M34.4428 21.8078C29.8176 21.8078 26.0393 18.0293 26.0393 13.4039C26.0393 8.7785 29.8176 5 34.4428 5C39.068 5 42.8463 8.7785 42.8463 13.4039V21.8078H34.4428Z" fill="#36C5F0"/>
<path d="M34.4448 26.0423C39.07 26.0423 42.8483 29.8208 42.8483 34.4462C42.8483 39.0716 39.07 42.8501 34.4448 42.8501H13.4035C8.77832 42.8501 5 39.0716 5 34.4462C5 29.8208 8.77832 26.0423 13.4035 26.0423H34.4448Z" fill="#36C5F0"/>
<path d="M68.1904 34.4461C68.1904 29.8207 71.9687 26.0422 76.5939 26.0422C81.2191 26.0422 84.9974 29.8207 84.9974 34.4461C84.9974 39.0715 81.2191 42.85 76.5939 42.85H68.1904V34.4461Z" fill="#2EB67D"/>
<path d="M63.9582 34.4462C63.9582 39.0716 60.1798 42.8501 55.5547 42.8501C50.9295 42.8501 47.1512 39.0716 47.1512 34.4462V13.4039C47.1512 8.7785 50.9295 5 55.5547 5C60.1798 5 63.9582 8.7785 63.9582 13.4039V34.4462Z" fill="#2EB67D"/>
<path d="M55.5547 68.1927C60.1798 68.1927 63.9582 71.9712 63.9582 76.5966C63.9582 81.222 60.1798 85.0005 55.5547 85.0005C50.9295 85.0005 47.1512 81.222 47.1512 76.5966V68.1927H55.5547Z" fill="#ECB22E"/>
<path d="M55.5547 63.9582C50.9295 63.9582 47.1512 60.1797 47.1512 55.5543C47.1512 50.9289 50.9295 47.1504 55.5547 47.1504H76.596C81.2211 47.1504 84.9995 50.9289 84.9995 55.5543C84.9995 60.1797 81.2211 63.9582 76.596 63.9582H55.5547Z" fill="#ECB22E"/>
</svg>
