<svg width="90" height="90" viewBox="0 0 90 90" fill="none" xmlns="http://www.w3.org/2000/svg">
<path d="M77 5H13C8.58172 5 5 8.58172 5 13V77C5 81.4183 8.58172 85 13 85H77C81.4183 85 85 81.4183 85 77V13C85 8.58172 81.4183 5 77 5Z" fill="#3333FF"/>
<path d="M69.705 54.7424L59.7146 39.6453L67.6272 35.7104C68.5861 35.2286 69.2257 34.2649 69.2257 33.1407C69.2257 32.0165 68.5861 31.0528 67.6272 30.571L47.5664 20.4528C46.6872 19.9709 45.6483 19.8906 44.6892 20.1315C44.4494 20.2119 44.2097 20.2922 43.9699 20.3725L43.8101 20.4528L23.5895 30.571L22.5505 31.0528C21.8312 31.4543 21.2718 32.0968 21.032 32.8998C20.7923 33.7028 20.9521 34.5862 21.4316 35.2286L31.422 50.3257L23.5096 54.2605C22.5505 54.7424 21.9112 55.706 21.9112 56.8301C21.9112 57.9544 22.5505 58.9181 23.5096 59.4L43.5703 69.5181C44.1297 69.8393 44.7692 70 45.4085 70C45.7282 70 46.1278 69.9196 46.4475 69.8393C46.6873 69.7592 46.927 69.6788 47.1667 69.5984L68.4264 58.9181C69.1455 58.5165 69.705 57.8741 69.9448 57.0712C70.2644 56.2681 70.1846 55.4652 69.705 54.7424ZM46.1278 66.7076L36.0575 51.5301L45.5683 46.712L65.7089 56.8301L56.0382 61.7288L46.1278 66.7076ZM32.8606 29.3664L45.0888 23.2634L55.1591 38.4407L45.6483 43.259L25.5077 33.1407L32.8606 29.3664ZM64.6699 52.8152L49.085 44.9453L56.9175 41.0104L64.6699 52.8152ZM57.9565 37.0756L50.124 25.271L65.7089 33.1407L57.9565 37.0756ZM26.4668 37.1559L42.0518 45.0256L34.2193 48.9605L26.4668 37.1559ZM33.2602 52.9757L41.0927 64.7804L25.5077 56.9105L33.2602 52.9757Z" fill="white"/>
</svg>
