<svg width="90" height="90" viewBox="0 0 90 90" fill="none" xmlns="http://www.w3.org/2000/svg">
<path d="M79.3339 27.1022C79.3868 27.8681 79.3869 28.634 79.3869 29.4069C79.3869 52.9587 61.4574 80.121 28.6727 80.121V80.1069C18.988 80.121 9.5045 77.3469 1.35156 72.1163C2.7598 72.2857 4.17509 72.3704 5.59392 72.374C13.6198 72.381 21.4163 69.6881 27.7304 64.7292C20.1033 64.5845 13.4151 59.6116 11.0786 52.3516C13.7504 52.8669 16.5033 52.761 19.1257 52.0445C10.8104 50.3645 4.82803 43.0587 4.82803 34.574C4.82803 34.4963 4.82803 34.4222 4.82803 34.3481C7.30568 35.7281 10.0798 36.494 12.9174 36.5787C5.08568 31.3445 2.67156 20.9257 7.40097 12.7798C16.4504 23.9151 29.8021 30.6845 44.1351 31.401C42.6986 25.2104 44.661 18.7234 49.2916 14.3716C56.4704 7.62336 67.761 7.96925 74.5092 15.1445C78.501 14.3575 82.3269 12.8928 85.828 10.8175C84.4974 14.9434 81.7127 18.4481 77.9927 20.6751C81.5257 20.2587 84.9774 19.3128 88.228 17.8692C85.8351 21.4551 82.821 24.5787 79.3339 27.1022Z" fill="#1D9BF0"/>
</svg>
