<svg width="100" height="100" viewBox="0 0 100 100" fill="none" xmlns="http://www.w3.org/2000/svg">
<g clip-path="url(#clip0_1503_2800)">
<path d="M75.2593 29.7375L49.5029 14.8687L23.7539 29.7375V14.8687L49.5066 0L75.263 14.8687V29.7375H75.2593Z" fill="#A435F0"/>
<path d="M23.7539 42.2234H37.2443V74.9999C37.2443 83.468 43.5679 87.5958 49.5066 87.5958C55.4966 87.5958 61.7726 83.358 61.7726 74.8862V42.2234H75.263V75.7807C75.263 83.5817 72.8105 89.601 67.9056 93.7288C62.997 97.8529 56.8677 99.8618 49.393 99.8618C41.9256 99.8618 35.7926 97.8565 31.0013 93.7288C26.2064 89.6047 23.7539 83.809 23.7539 76.1143V42.2234Z" fill="black"/>
</g>
<defs>
<clipPath id="clip0_1503_2800">
<rect width="51.5091" height="100" fill="white" transform="translate(23.7539)"/>
</clipPath>
</defs>
</svg>
