<svg width="90" height="90" viewBox="0 0 90 90" fill="none" xmlns="http://www.w3.org/2000/svg">
<path d="M77 5H13C8.58172 5 5 8.58172 5 13V77C5 81.4183 8.58172 85 13 85H77C81.4183 85 85 81.4183 85 77V13C85 8.58172 81.4183 5 77 5Z" fill="#6D1ED4"/>
<path d="M61.7367 64.4747C61.7056 64.4417 61.6707 64.4107 61.6377 64.3777C61.6125 64.3524 61.5853 64.3292 61.562 64.302C60.0036 62.6776 58.7422 60.7563 57.8106 58.5924C57.6651 58.2567 57.3351 58.0393 56.9703 58.0393H56.2173H52.8579H39.5407L60.8575 30.7626C60.9818 30.6015 61.0497 30.4036 61.0497 30.1998V24.8842C61.0497 24.3777 60.6421 23.9682 60.1356 23.9682H50.1797H49.7877H48.6388V16.345C48.6388 16.0947 48.4331 15.889 48.1808 15.889H47.9537H47.7868H41.5066H41.2796H41.1127C40.8604 15.889 40.6546 16.0947 40.6546 16.345V23.9682H39.0109H38.6169H29.3888C28.8822 23.9682 28.4727 24.3777 28.4727 24.8842V31.0459C28.4727 31.5505 28.8822 31.96 29.3888 31.96H48.9532L27.7624 58.9941C27.6363 59.1552 27.5684 59.3532 27.5684 59.5589V65.1151C27.5684 65.6217 27.9759 66.0312 28.4824 66.0312H40.6605V73.6523C40.6605 73.9066 40.8662 74.1104 41.1185 74.1104H41.2796H41.5124H47.7926H47.9537H48.1866C48.4389 74.1104 48.6446 73.9066 48.6446 73.6523V66.0312H53.7662H60.3336H61.0846C61.4533 66.0312 61.7852 65.8099 61.9288 65.4703C62.0705 65.1287 61.9948 64.7367 61.7367 64.4747Z" fill="white"/>
</svg>
