<svg width="90" height="90" viewBox="0 0 90 90" fill="none" xmlns="http://www.w3.org/2000/svg">
<path d="M5 13C5 8.58172 8.58172 5 13 5H77C81.4183 5 85 8.58172 85 13V77C85 81.4183 81.4183 85 77 85H13C8.58172 85 5 81.4183 5 77V13Z" fill="url(#paint0_linear_874_4307)"/>
<path d="M28.8886 51.1253H18.966C18.2698 51.1253 17.6478 50.7097 17.3814 50.0665C17.115 49.4233 17.261 48.6896 17.7532 48.1974L24.6262 41.3244H19.7002C18.347 41.3244 17.25 40.2274 17.25 38.8742H26.4008C27.0969 38.8742 27.7189 39.2897 27.9853 39.9329C28.2518 40.5761 28.1059 41.3097 27.6137 41.8021L20.7407 48.6751H26.4384C27.7916 48.6751 28.8886 49.7721 28.8886 51.1253ZM72.7477 43.4684C72.7477 40.8338 70.6043 38.6904 67.9698 38.6904C66.5605 38.6904 65.2922 39.3041 64.4169 40.2778C63.5416 39.3041 62.2733 38.6904 60.8641 38.6904C58.2295 38.6904 56.0861 40.8338 56.0861 43.4684V51.1253C57.4394 51.1253 58.5364 50.0283 58.5364 48.6751V43.4684C58.5364 42.1849 59.5806 41.1407 60.8641 41.1407C62.1476 41.1407 63.1918 42.1849 63.1918 43.4684V48.6751C63.1918 50.0283 64.2888 51.1253 65.6421 51.1253V43.4684C65.6421 42.1849 66.6863 41.1407 67.9698 41.1407C69.2533 41.1407 70.2975 42.1849 70.2975 43.4684V48.6751C70.2975 50.0283 71.3945 51.1253 72.7477 51.1253V43.4684ZM54.861 44.9998C54.861 48.4843 52.0362 51.3091 48.5517 51.3091C45.0671 51.3091 42.2423 48.4843 42.2423 44.9998C42.2423 41.5152 45.0671 38.6904 48.5517 38.6904C52.0362 38.6904 54.861 41.5152 54.861 44.9998ZM52.4108 44.9998C52.4108 42.8684 50.683 41.1407 48.5517 41.1407C46.4204 41.1407 44.6926 42.8684 44.6926 44.9998C44.6926 47.1311 46.4204 48.8589 48.5517 48.8589C50.683 48.8589 52.4108 47.1311 52.4108 44.9998ZM41.2623 44.9998C41.2623 48.4843 38.4375 51.3091 34.9529 51.3091C31.4684 51.3091 28.6436 48.4843 28.6436 44.9998C28.6436 41.5152 31.4684 38.6904 34.9529 38.6904C38.4375 38.6904 41.2623 41.5152 41.2623 44.9998ZM38.812 44.9998C38.812 42.8684 37.0842 41.1407 34.9529 41.1407C32.8216 41.1407 31.0938 42.8684 31.0938 44.9998C31.0938 47.1311 32.8216 48.8589 34.9529 48.8589C37.0842 48.8589 38.812 47.1311 38.812 44.9998Z" fill="white"/>
<defs>
<linearGradient id="paint0_linear_874_4307" x1="17.6795" y1="92.3205" x2="72.3205" y2="-2.3205" gradientUnits="userSpaceOnUse">
<stop stop-color="#0845BF"/>
<stop offset="0.6" stop-color="#0B5CFF"/>
<stop offset="1" stop-color="#4F90EE"/>
</linearGradient>
</defs>
</svg>
